<?xml version="1.0" standalone="no"?>
<!DOCTYPE svg PUBLIC "-//W3C//DTD SVG 20010904//EN"
 "http://www.w3.org/TR/2001/REC-SVG-20010904/DTD/svg10.dtd">
<svg version="1.0" xmlns="http://www.w3.org/2000/svg"
 width="304.000000pt" height="304.000000pt" viewBox="0 0 304.000000 304.000000"
 preserveAspectRatio="xMidYMid meet">
<metadata>
Created by potrace 1.14, written by Peter Selinger 2001-2017
</metadata>
<g transform="translate(0.000000,304.000000) scale(0.100000,-0.100000)"
fill="#000000" stroke="none">
<path d="M430 2921 c-189 -8 -206 -14 -258 -90 l-32 -46 0 -1257 0 -1256 33
-44 c18 -24 53 -54 77 -68 l45 -25 1235 0 1235 0 45 25 c24 14 59 44 77 68
l33 44 0 1258 0 1258 -33 44 c-18 24 -53 54 -77 68 l-45 24 -1085 2 c-597 1
-1159 -1 -1250 -5z m775 -1033 c4 -17 79 -387 96 -477 1 -3 29 107 63 244 l62
250 105 3 105 3 59 -251 c32 -137 60 -248 62 -247 2 2 23 105 48 228 25 123
47 234 50 247 5 21 10 22 105 22 55 0 100 -3 100 -6 0 -5 -175 -680 -186 -716
-5 -16 -19 -18 -119 -18 l-113 0 -52 218 c-29 119 -55 221 -58 227 -3 5 -31
-92 -62 -215 l-56 -225 -115 -3 -114 -2 -88 347 c-48 192 -90 358 -93 371 -6
22 -5 22 95 22 96 0 101 -1 106 -22z"/>
</g>
</svg>
